<?xml version="1.0" encoding="UTF-8" standalone="no"?><svg width="386" height="102" viewBox="0 0 386 102" fill="none" xmlns="http://www.w3.org/2000/svg">
<path d="M50.124 66.7733L50.4766 67.4352C50.8071 67.2591 50.9571 66.8662 50.828 66.5147L50.124 66.7733ZM23.1872 66.7733L22.4832 66.5147C22.3541 66.8662 22.504 67.2591 22.8346 67.4352L23.1872 66.7733ZM63.75 37.5C63.3358 37.5 63 37.8358 63 38.25C63 38.6642 63.3358 39 63.75 39V37.5ZM79.6875 39C80.1017 39 80.4375 38.6642 80.4375 38.25C80.4375 37.8358 80.1017 37.5 79.6875 37.5V39ZM63.75 50.25C63.3358 50.25 63 50.5858 63 51C63 51.4142 63.3358 51.75 63.75 51.75V50.25ZM79.6875 51.75C80.1017 51.75 80.4375 51.4142 80.4375 51C80.4375 50.5858 80.1017 50.25 79.6875 50.25V51.75ZM63.75 63C63.3358 63 63 63.3358 63 63.75C63 64.1642 63.3358 64.5 63.75 64.5V63ZM79.6875 64.5C80.1017 64.5 80.4375 64.1642 80.4375 63.75C80.4375 63.3358 80.1017 63 79.6875 63V64.5ZM19.125 19.875H82.875V18.375H19.125V19.875ZM91.6875 28.6875V73.3125H93.1875V28.6875H91.6875ZM82.875 82.125H19.125V83.625H82.875V82.125ZM10.3125 73.3125V28.6875H8.8125V73.3125H10.3125ZM19.125 82.125C14.258 82.125 10.3125 78.1795 10.3125 73.3125H8.8125C8.8125 79.0079 13.4296 83.625 19.125 83.625V82.125ZM91.6875 73.3125C91.6875 78.1795 87.742 82.125 82.875 82.125V83.625C88.5704 83.625 93.1875 79.0079 93.1875 73.3125H91.6875ZM82.875 19.875C87.742 19.875 91.6875 23.8205 91.6875 28.6875H93.1875C93.1875 22.9921 88.5704 18.375 82.875 18.375V19.875ZM19.125 18.375C13.4296 18.375 8.8125 22.9921 8.8125 28.6875H10.3125C10.3125 23.8205 14.258 19.875 19.125 19.875V18.375ZM43.875 39.8438C43.875 43.8306 40.6431 47.0625 36.6562 47.0625V48.5625C41.4715 48.5625 45.375 44.659 45.375 39.8438H43.875ZM36.6562 47.0625C32.6694 47.0625 29.4375 43.8306 29.4375 39.8438H27.9375C27.9375 44.659 31.841 48.5625 36.6562 48.5625V47.0625ZM29.4375 39.8438C29.4375 35.8569 32.6694 32.625 36.6562 32.625V31.125C31.841 31.125 27.9375 35.0285 27.9375 39.8438H29.4375ZM36.6562 32.625C40.6431 32.625 43.875 35.8569 43.875 39.8438H45.375C45.375 35.0285 41.4715 31.125 36.6562 31.125V32.625ZM49.7713 66.1113C45.8613 68.1942 41.3974 69.375 36.6556 69.375V70.875C41.6493 70.875 46.3547 69.6309 50.4766 67.4352L49.7713 66.1113ZM36.6556 58.125C42.5149 58.125 47.5102 61.8324 49.4199 67.0319L50.828 66.5147C48.7083 60.7439 43.1639 56.625 36.6556 56.625V58.125ZM36.6556 69.375C31.9137 69.375 27.4499 68.1942 23.5398 66.1113L22.8346 67.4352C26.9564 69.6309 31.6618 70.875 36.6556 70.875V69.375ZM23.8912 67.0319C25.801 61.8324 30.7963 58.125 36.6556 58.125V56.625C30.1472 56.625 24.6028 60.7439 22.4832 66.5147L23.8912 67.0319ZM63.75 39H79.6875V37.5H63.75V39ZM63.75 51.75H79.6875V50.25H63.75V51.75ZM63.75 64.5H79.6875V63H63.75V64.5Z" fill="#0F172A"/>
<path d="M145.966 62.048H133.39L131.374 68H122.782L134.974 34.304H144.478L156.67 68H147.982L145.966 62.048ZM143.854 55.712L139.678 43.376L135.55 55.712H143.854ZM183.181 50.72C185.133 51.136 186.701 52.112 187.885 53.648C189.069 55.152 189.661 56.88 189.661 58.832C189.661 61.648 188.669 63.888 186.685 65.552C184.733 67.184 181.997 68 178.477 68H162.781V34.304H177.949C181.373 34.304 184.045 35.088 185.965 36.656C187.917 38.224 188.893 40.352 188.893 43.04C188.893 45.024 188.365 46.672 187.309 47.984C186.285 49.296 184.909 50.208 183.181 50.72ZM170.989 47.936H176.365C177.709 47.936 178.733 47.648 179.437 47.072C180.173 46.464 180.541 45.584 180.541 44.432C180.541 43.28 180.173 42.4 179.437 41.792C178.733 41.184 177.709 40.88 176.365 40.88H170.989V47.936ZM177.037 61.376C178.413 61.376 179.469 61.072 180.205 60.464C180.973 59.824 181.357 58.912 181.357 57.728C181.357 56.544 180.957 55.616 180.157 54.944C179.389 54.272 178.317 53.936 176.941 53.936H170.989V61.376H177.037ZM212.757 68.336C209.589 68.336 206.677 67.6 204.021 66.128C201.397 64.656 199.301 62.608 197.733 59.984C196.197 57.328 195.429 54.352 195.429 51.056C195.429 47.76 196.197 44.8 197.733 42.176C199.301 39.552 201.397 37.504 204.021 36.032C206.677 34.56 209.589 33.824 212.757 33.824C215.925 33.824 218.821 34.56 221.445 36.032C224.101 37.504 226.181 39.552 227.685 42.176C229.221 44.8 229.989 47.76 229.989 51.056C229.989 54.352 229.221 57.328 227.685 59.984C226.149 62.608 224.069 64.656 221.445 66.128C218.821 67.6 215.925 68.336 212.757 68.336ZM212.757 60.848C215.445 60.848 217.589 59.952 219.189 58.16C220.821 56.368 221.637 54 221.637 51.056C221.637 48.08 220.821 45.712 219.189 43.952C217.589 42.16 215.445 41.264 212.757 41.264C210.037 41.264 207.861 42.144 206.229 43.904C204.629 45.664 203.829 48.048 203.829 51.056C203.829 54.032 204.629 56.416 206.229 58.208C207.861 59.968 210.037 60.848 212.757 60.848ZM245.02 34.304V54.464C245.02 56.48 245.516 58.032 246.508 59.12C247.5 60.208 248.956 60.752 250.876 60.752C252.796 60.752 254.268 60.208 255.292 59.12C256.316 58.032 256.828 56.48 256.828 54.464V34.304H265.036V54.416C265.036 57.424 264.396 59.968 263.116 62.048C261.836 64.128 260.108 65.696 257.932 66.752C255.788 67.808 253.388 68.336 250.732 68.336C248.076 68.336 245.692 67.824 243.58 66.8C241.5 65.744 239.852 64.176 238.636 62.096C237.42 59.984 236.812 57.424 236.812 54.416V34.304H245.02ZM297.439 34.304V40.88H288.511V68H280.303V40.88H271.375V34.304H297.439ZM354.691 34.304V68H346.483V47.792L338.947 68H332.323L324.739 47.744V68H316.531V34.304H326.227L335.683 57.632L345.043 34.304H354.691ZM371.201 40.88V47.696H382.193V54.032H371.201V61.424H383.633V68H362.993V34.304H383.633V40.88H371.201Z" fill="black"/>
</svg>
