<?xml version="1.0" encoding="UTF-8" standalone="no"?><svg width="260" height="68" viewBox="0 0 260 68" fill="none" xmlns="http://www.w3.org/2000/svg">
<g filter="url(#filter0_d_6_21)">
<rect x="4" width="252" height="60" rx="30" fill="#EAC4AD" shape-rendering="crispEdges"/>
<path d="M49.808 36.456H40.496L38.896 41H35.088L43.056 18.728H47.28L55.248 41H51.408L49.808 36.456ZM48.784 33.48L45.168 23.144L41.52 33.48H48.784ZM62.3605 25.992C62.9792 25.1387 63.8218 24.4453 64.8885 23.912C65.9765 23.3573 67.1818 23.08 68.5045 23.08C70.0618 23.08 71.4698 23.4533 72.7285 24.2C73.9872 24.9467 74.9792 26.0133 75.7045 27.4C76.4298 28.7653 76.7925 30.3333 76.7925 32.104C76.7925 33.8747 76.4298 35.464 75.7045 36.872C74.9792 38.2587 73.9765 39.3467 72.6965 40.136C71.4378 40.904 70.0405 41.288 68.5045 41.288C67.1392 41.288 65.9232 41.0213 64.8565 40.488C63.8112 39.9547 62.9792 39.272 62.3605 38.44V41H58.7125V17.32H62.3605V25.992ZM73.0805 32.104C73.0805 30.888 72.8245 29.8427 72.3125 28.968C71.8218 28.072 71.1605 27.4 70.3285 26.952C69.5178 26.4827 68.6432 26.248 67.7045 26.248C66.7872 26.248 65.9125 26.4827 65.0805 26.952C64.2698 27.4213 63.6085 28.104 63.0965 29C62.6058 29.896 62.3605 30.952 62.3605 32.168C62.3605 33.384 62.6058 34.4507 63.0965 35.368C63.6085 36.264 64.2698 36.9467 65.0805 37.416C65.9125 37.8853 66.7872 38.12 67.7045 38.12C68.6432 38.12 69.5178 37.8853 70.3285 37.416C71.1605 36.9253 71.8218 36.2213 72.3125 35.304C72.8245 34.3867 73.0805 33.32 73.0805 32.104ZM88.048 41.288C86.384 41.288 84.88 40.9147 83.536 40.168C82.192 39.4 81.136 38.3333 80.368 36.968C79.6 35.5813 79.216 33.9813 79.216 32.168C79.216 30.376 79.6107 28.7867 80.4 27.4C81.1893 26.0133 82.2667 24.9467 83.632 24.2C84.9973 23.4533 86.5227 23.08 88.208 23.08C89.8933 23.08 91.4187 23.4533 92.784 24.2C94.1493 24.9467 95.2267 26.0133 96.016 27.4C96.8053 28.7867 97.2 30.376 97.2 32.168C97.2 33.96 96.7947 35.5493 95.984 36.936C95.1733 38.3227 94.064 39.4 92.656 40.168C91.2693 40.9147 89.7333 41.288 88.048 41.288ZM88.048 38.12C88.9867 38.12 89.8613 37.896 90.672 37.448C91.504 37 92.176 36.328 92.688 35.432C93.2 34.536 93.456 33.448 93.456 32.168C93.456 30.888 93.2107 29.8107 92.72 28.936C92.2293 28.04 91.5787 27.368 90.768 26.92C89.9573 26.472 89.0827 26.248 88.144 26.248C87.2053 26.248 86.3307 26.472 85.52 26.92C84.7307 27.368 84.1013 28.04 83.632 28.936C83.1627 29.8107 82.928 30.888 82.928 32.168C82.928 34.0667 83.408 35.5387 84.368 36.584C85.3493 37.608 86.576 38.12 88.048 38.12ZM116.774 23.368V41H113.126V38.92C112.55 39.6453 111.793 40.2213 110.854 40.648C109.937 41.0533 108.956 41.256 107.91 41.256C106.524 41.256 105.276 40.968 104.166 40.392C103.078 39.816 102.214 38.9627 101.574 37.832C100.956 36.7013 100.646 35.336 100.646 33.736V23.368H104.262V33.192C104.262 34.7707 104.657 35.9867 105.446 36.84C106.236 37.672 107.313 38.088 108.678 38.088C110.044 38.088 111.121 37.672 111.91 36.84C112.721 35.9867 113.126 34.7707 113.126 33.192V23.368H116.774ZM125.844 26.344V36.104C125.844 36.7653 125.993 37.2453 126.292 37.544C126.612 37.8213 127.145 37.96 127.892 37.96H130.132V41H127.252C125.609 41 124.35 40.616 123.476 39.848C122.601 39.08 122.164 37.832 122.164 36.104V26.344H120.084V23.368H122.164V18.984H125.844V23.368H130.132V26.344H125.844ZM163.15 23.08C164.537 23.08 165.774 23.368 166.862 23.944C167.972 24.52 168.836 25.3733 169.454 26.504C170.094 27.6347 170.414 29 170.414 30.6V41H166.798V31.144C166.798 29.5653 166.404 28.36 165.614 27.528C164.825 26.6747 163.748 26.248 162.382 26.248C161.017 26.248 159.929 26.6747 159.118 27.528C158.329 28.36 157.934 29.5653 157.934 31.144V41H154.318V31.144C154.318 29.5653 153.924 28.36 153.134 27.528C152.345 26.6747 151.268 26.248 149.902 26.248C148.537 26.248 147.449 26.6747 146.638 27.528C145.849 28.36 145.454 29.5653 145.454 31.144V41H141.806V23.368H145.454V25.384C146.052 24.6587 146.809 24.0933 147.726 23.688C148.644 23.2827 149.625 23.08 150.67 23.08C152.078 23.08 153.337 23.3787 154.446 23.976C155.556 24.5733 156.409 25.4373 157.006 26.568C157.54 25.5013 158.372 24.6587 159.502 24.04C160.633 23.4 161.849 23.08 163.15 23.08ZM191.216 31.752C191.216 32.4133 191.174 33.0107 191.088 33.544H177.616C177.723 34.952 178.246 36.0827 179.184 36.936C180.123 37.7893 181.275 38.216 182.64 38.216C184.603 38.216 185.99 37.3947 186.8 35.752H190.736C190.203 37.3733 189.232 38.7067 187.824 39.752C186.438 40.776 184.71 41.288 182.64 41.288C180.955 41.288 179.44 40.9147 178.096 40.168C176.774 39.4 175.728 38.3333 174.96 36.968C174.214 35.5813 173.84 33.9813 173.84 32.168C173.84 30.3547 174.203 28.7653 174.928 27.4C175.675 26.0133 176.71 24.9467 178.032 24.2C179.376 23.4533 180.912 23.08 182.64 23.08C184.304 23.08 185.787 23.4427 187.088 24.168C188.39 24.8933 189.403 25.9173 190.128 27.24C190.854 28.5413 191.216 30.0453 191.216 31.752ZM187.408 30.6C187.387 29.256 186.907 28.1787 185.968 27.368C185.03 26.5573 183.867 26.152 182.48 26.152C181.222 26.152 180.144 26.5573 179.248 27.368C178.352 28.1573 177.819 29.2347 177.648 30.6H187.408Z" fill="black"/>
<path d="M212 30.75L215 33.75M215 33.75L218 30.75M215 33.75L215 26.25M224 30C224 34.9706 219.971 39 215 39C210.029 39 206 34.9706 206 30C206 25.0294 210.029 21 215 21C219.971 21 224 25.0294 224 30Z" stroke="#0F172A" stroke-width="1.5" stroke-linecap="round" stroke-linejoin="round"/>
</g>
<defs>
<filter id="filter0_d_6_21" x="0" y="0" width="260" height="68" filterUnits="userSpaceOnUse" color-interpolation-filters="sRGB">
<feFlood flood-opacity="0" result="BackgroundImageFix"/>
<feColorMatrix in="SourceAlpha" type="matrix" values="0 0 0 0 0 0 0 0 0 0 0 0 0 0 0 0 0 0 127 0" result="hardAlpha"/>
<feOffset dy="4"/>
<feGaussianBlur stdDeviation="2"/>
<feComposite in2="hardAlpha" operator="out"/>
<feColorMatrix type="matrix" values="0 0 0 0 0 0 0 0 0 0 0 0 0 0 0 0 0 0 0.25 0"/>
<feBlend mode="normal" in2="BackgroundImageFix" result="effect1_dropShadow_6_21"/>
<feBlend mode="normal" in="SourceGraphic" in2="effect1_dropShadow_6_21" result="shape"/>
</filter>
</defs>
</svg>
