<?xml version="1.0" encoding="UTF-8" standalone="no"?><svg width="94" height="22" viewBox="0 0 94 22" fill="none" xmlns="http://www.w3.org/2000/svg">
<path d="M9.38 2.46V5.2H3.66V8.16H7.94V10.82H3.66V16.5H0.24V2.46H9.38ZM15.5975 1.7V16.5H12.1775V1.7H15.5975ZM30.0959 5.34V16.5H26.6759V14.98C26.3293 15.4733 25.8559 15.8733 25.2559 16.18C24.6693 16.4733 24.0159 16.62 23.2959 16.62C22.4426 16.62 21.6893 16.4333 21.0359 16.06C20.3826 15.6733 19.8759 15.12 19.5159 14.4C19.1559 13.68 18.9759 12.8333 18.9759 11.86V5.34H22.3759V11.4C22.3759 12.1467 22.5693 12.7267 22.9559 13.14C23.3426 13.5533 23.8626 13.76 24.5159 13.76C25.1826 13.76 25.7093 13.5533 26.0959 13.14C26.4826 12.7267 26.6759 12.1467 26.6759 11.4V5.34H30.0959ZM39.1525 8.18H37.3125V16.5H33.8925V8.18H32.6525V5.34H33.8925V5.02C33.8925 3.64667 34.2858 2.60667 35.0725 1.9C35.8592 1.18 37.0125 0.819999 38.5325 0.819999C38.7858 0.819999 38.9725 0.826666 39.0925 0.839999V3.74C38.4392 3.7 37.9792 3.79333 37.7125 4.02C37.4458 4.24667 37.3125 4.65333 37.3125 5.24V5.34H39.1525V8.18ZM46.2995 16.66C45.3262 16.66 44.4595 16.4933 43.6995 16.16C42.9395 15.8267 42.3395 15.3733 41.8995 14.8C41.4595 14.2133 41.2129 13.56 41.1595 12.84H44.5395C44.5795 13.2267 44.7595 13.54 45.0795 13.78C45.3995 14.02 45.7929 14.14 46.2595 14.14C46.6862 14.14 47.0129 14.06 47.2395 13.9C47.4795 13.7267 47.5995 13.5067 47.5995 13.24C47.5995 12.92 47.4329 12.6867 47.0995 12.54C46.7662 12.38 46.2262 12.2067 45.4795 12.02C44.6795 11.8333 44.0129 11.64 43.4795 11.44C42.9462 11.2267 42.4862 10.9 42.0995 10.46C41.7129 10.0067 41.5195 9.4 41.5195 8.64C41.5195 8 41.6929 7.42 42.0395 6.9C42.3995 6.36667 42.9195 5.94667 43.5995 5.64C44.2929 5.33333 45.1129 5.18 46.0595 5.18C47.4595 5.18 48.5595 5.52667 49.3595 6.22C50.1729 6.91333 50.6395 7.83333 50.7595 8.98H47.5995C47.5462 8.59333 47.3729 8.28667 47.0795 8.06C46.7995 7.83333 46.4262 7.72 45.9595 7.72C45.5595 7.72 45.2529 7.8 45.0395 7.96C44.8262 8.10667 44.7195 8.31333 44.7195 8.58C44.7195 8.9 44.8862 9.14 45.2195 9.3C45.5662 9.46 46.0995 9.62 46.8195 9.78C47.6462 9.99333 48.3195 10.2067 48.8395 10.42C49.3595 10.62 49.8129 10.9533 50.1995 11.42C50.5995 11.8733 50.8062 12.4867 50.8195 13.26C50.8195 13.9133 50.6329 14.5 50.2595 15.02C49.8995 15.5267 49.3729 15.9267 48.6795 16.22C47.9995 16.5133 47.2062 16.66 46.2995 16.66ZM60.7719 5.22C62.0519 5.22 63.0785 5.64667 63.8519 6.5C64.6252 7.34 65.0119 8.5 65.0119 9.98V16.5H61.6119V10.44C61.6119 9.69333 61.4185 9.11333 61.0319 8.7C60.6452 8.28667 60.1252 8.08 59.4719 8.08C58.8185 8.08 58.2985 8.28667 57.9119 8.7C57.5252 9.11333 57.3319 9.69333 57.3319 10.44V16.5H53.9119V1.7H57.3319V6.84C57.6785 6.34667 58.1519 5.95333 58.7519 5.66C59.3519 5.36667 60.0252 5.22 60.7719 5.22ZM70.1084 4.18C69.5084 4.18 69.0151 4.00667 68.6284 3.66C68.2551 3.3 68.0684 2.86 68.0684 2.34C68.0684 1.80667 68.2551 1.36667 68.6284 1.02C69.0151 0.659999 69.5084 0.479999 70.1084 0.479999C70.6951 0.479999 71.1751 0.659999 71.5484 1.02C71.9351 1.36667 72.1284 1.80667 72.1284 2.34C72.1284 2.86 71.9351 3.3 71.5484 3.66C71.1751 4.00667 70.6951 4.18 70.1084 4.18ZM71.8084 5.34V16.5H68.3884V5.34H71.8084ZM77.0069 4.18C76.4069 4.18 75.9135 4.00667 75.5269 3.66C75.1535 3.3 74.9669 2.86 74.9669 2.34C74.9669 1.80667 75.1535 1.36667 75.5269 1.02C75.9135 0.659999 76.4069 0.479999 77.0069 0.479999C77.5935 0.479999 78.0735 0.659999 78.4469 1.02C78.8335 1.36667 79.0269 1.80667 79.0269 2.34C79.0269 2.86 78.8335 3.3 78.4469 3.66C78.0735 4.00667 77.5935 4.18 77.0069 4.18ZM78.7069 5.34V16.5H75.2869V5.34H78.7069ZM85.6053 6.92C85.9386 6.4 86.3986 5.98 86.9853 5.66C87.572 5.34 88.2586 5.18 89.0453 5.18C89.9653 5.18 90.7986 5.41333 91.5453 5.88C92.292 6.34667 92.8786 7.01333 93.3053 7.88C93.7453 8.74667 93.9653 9.75333 93.9653 10.9C93.9653 12.0467 93.7453 13.06 93.3053 13.94C92.8786 14.8067 92.292 15.48 91.5453 15.96C90.7986 16.4267 89.9653 16.66 89.0453 16.66C88.272 16.66 87.5853 16.5 86.9853 16.18C86.3986 15.86 85.9386 15.4467 85.6053 14.94V21.82H82.1853V5.34H85.6053V6.92ZM90.4853 10.9C90.4853 10.0467 90.2453 9.38 89.7653 8.9C89.2986 8.40667 88.7186 8.16 88.0253 8.16C87.3453 8.16 86.7653 8.40667 86.2853 8.9C85.8186 9.39333 85.5853 10.0667 85.5853 10.92C85.5853 11.7733 85.8186 12.4467 86.2853 12.94C86.7653 13.4333 87.3453 13.68 88.0253 13.68C88.7053 13.68 89.2853 13.4333 89.7653 12.94C90.2453 12.4333 90.4853 11.7533 90.4853 10.9Z" fill="white"/>
</svg>
